<svg width="50" height="44" viewBox="0 0 50 44" fill="none" xmlns="http://www.w3.org/2000/svg">
<g opacity="0.3">
<path d="M31.4768 3.81477L48.2372 31.2913C51.4979 36.6369 47.8265 43.7042 41.4854 43.7042H7.96458C1.62354 43.7042 -2.04785 36.6369 1.21282 31.2913L17.9732 3.81477C21.0761 -1.27159 28.3739 -1.27159 31.4768 3.81477V3.81477ZM45.987 32.6637L29.2266 5.18715C27.1467 1.77496 22.3033 1.77496 20.2234 5.18715L3.46299 32.6637C1.26792 36.2625 3.67836 41.0621 7.96458 41.0621H41.4854C45.7716 41.0621 48.1821 36.2625 45.987 32.6637Z" fill="#F3DD66"/>
<path fill-rule="evenodd" clip-rule="evenodd" d="M23.28 28.6255L22.1781 15.4826C22.0604 14.0864 23.3238 12.9357 24.725 12.9357C26.1262 12.9357 27.3896 14.0864 27.2719 15.4826L26.17 28.6255C25.9897 30.768 23.4578 30.7504 23.28 28.6255V28.6255Z" fill="#F3DD66"/>
<path fill-rule="evenodd" clip-rule="evenodd" d="M24.725 32.5636C25.9071 32.5636 26.8662 33.5228 26.8662 34.7061C26.8662 35.8881 25.9071 36.8473 24.725 36.8473C23.5417 36.8473 22.5838 35.8881 22.5838 34.7061C22.5838 33.5228 23.5417 32.5636 24.725 32.5636Z" fill="#F3DD66"/>
</g>
</svg>
