<svg width="50" height="50" viewBox="0 0 50 50" fill="none" xmlns="http://www.w3.org/2000/svg">
<circle cx="25" cy="25" r="24.5" fill="url(#paint0_radial_18_1303)" stroke="#FF6600"/>
<path d="M24.3012 20.9359C24.927 20.9344 25.5469 21.0567 26.1252 21.2959C26.7035 21.5351 27.2287 21.8863 27.6707 22.3294C28.5627 23.2215 29.0639 24.4314 29.0639 25.6929C29.0639 26.9545 28.5627 28.1644 27.6707 29.0565L23.1201 33.6071C22.228 34.499 21.0181 35 19.7566 35C18.4951 35 17.2853 34.499 16.3932 33.6071C15.5011 32.7149 15 31.505 15 30.2435C15 28.9819 15.5011 27.772 16.3932 26.8799L19.4106 23.8626M25.6988 29.0641C25.073 29.0656 24.4531 28.9433 23.8748 28.7041C23.2965 28.4649 22.7713 28.1137 22.3293 27.6706C21.4373 26.7785 20.9361 25.5686 20.9361 24.3071C20.9361 23.0455 21.4373 21.8356 22.3293 20.9435L26.8799 16.3929C27.772 15.501 28.9819 15 30.2434 15C31.5049 15 32.7147 15.501 33.6068 16.3929C34.4989 17.285 35 18.495 35 19.7565C35 21.0181 34.4989 22.228 33.6068 23.1201L30.5894 26.1374" stroke="#FF6600" stroke-linecap="round" stroke-linejoin="round"/>
<defs>
<radialGradient id="paint0_radial_18_1303" cx="0" cy="0" r="1" gradientUnits="userSpaceOnUse" gradientTransform="translate(25 25) rotate(134.061) scale(41.4801)">
<stop offset="0.500382" stop-color="white" stop-opacity="0"/>
<stop offset="0.975691" stop-color="#FF6600"/>
</radialGradient>
</defs>
</svg>
