<svg width="296" height="319" viewBox="0 0 296 319" fill="none" xmlns="http://www.w3.org/2000/svg">
<g id="logo-solo 1">
<g id="logo">
<g id="circle-base">
<path id="Vector" d="M148.031 246.431C196.516 246.431 235.821 207.126 235.821 158.641C235.821 110.156 196.516 70.851 148.031 70.851C99.5457 70.851 60.2407 110.156 60.2407 158.641C60.2407 207.126 99.5457 246.431 148.031 246.431Z" fill="url(#paint0_linear_72_805)"/>
<path id="Vector_2" d="M148.031 246.431C196.516 246.431 235.821 207.126 235.821 158.641C235.821 110.156 196.516 70.851 148.031 70.851C99.5457 70.851 60.2407 110.156 60.2407 158.641C60.2407 207.126 99.5457 246.431 148.031 246.431Z" fill="#FF6600"/>
</g>
<g id="arrow-bottom" filter="url(#filter0_i_72_805)">
<path id="Vector_3" d="M221.843 134.548C215.912 135.819 212.107 141.6 213.33 147.492C219.091 175.228 206.37 203.442 181.694 217.689C157.017 231.936 126.23 228.841 105.08 209.99C101.564 206.858 96.4136 206.338 92.3066 208.709L45.4096 235.785L48.0616 226.028C49.6468 220.207 46.1996 214.236 40.3614 212.691C34.5231 211.146 28.5148 214.62 26.9281 220.447L17.351 255.661C17.1658 256.354 17.0477 257.067 16.9944 257.788C16.9756 258.114 17.014 258.444 17.0219 258.769C17.0278 259.154 17.012 259.533 17.0605 259.913C17.1119 260.313 17.2279 260.689 17.3198 261.08C17.3958 261.379 17.4347 261.686 17.5393 261.986C17.7709 262.667 18.0616 263.322 18.42 263.943C18.424 263.949 18.4368 263.956 18.4408 263.963C18.7952 264.576 19.2078 265.148 19.6752 265.678C19.9017 265.927 20.1544 266.133 20.3922 266.361C20.6657 266.62 20.9258 266.895 21.2278 267.123C21.5526 267.374 21.9129 267.559 22.2584 267.767C22.5188 267.923 22.7616 268.112 23.0368 268.246C23.6881 268.56 24.3665 268.818 25.0586 269.003L60.3371 278.321C63.2553 279.091 66.2162 278.612 68.6444 277.21C71.0796 275.804 72.9753 273.48 73.7669 270.567C75.3521 264.745 71.9049 258.775 66.0667 257.23L56.2906 254.648L96.649 231.347C124.436 251.899 162.02 254.192 192.582 236.547C225.497 217.544 242.451 179.927 234.777 142.943C233.555 137.054 227.767 133.291 221.843 134.548Z" fill="white"/>
</g>
<g id="arrow-top" filter="url(#filter1_i_72_805)">
<path id="Vector_4" d="M73.5097 184.262C79.4404 182.992 83.2455 177.21 82.0222 171.318C76.2611 143.583 88.9821 115.369 113.659 101.122C138.335 86.8747 169.123 89.9689 190.272 108.82C193.789 111.952 198.939 112.472 203.046 110.101L249.943 83.0249L247.291 92.7822C245.706 98.6038 249.153 104.574 254.991 106.119C260.829 107.664 266.838 104.191 268.424 98.3636L278.002 63.1489C278.187 62.4567 278.305 61.7438 278.358 61.0225C278.377 60.6962 278.339 60.3663 278.331 60.0416C278.325 59.6563 278.34 59.2768 278.292 58.8978C278.241 58.4977 278.125 58.1212 278.033 57.7307C277.957 57.4316 277.918 57.1248 277.813 56.824C277.582 56.1438 277.291 55.4886 276.933 54.8678C276.929 54.861 276.916 54.8547 276.912 54.8478C276.557 54.2339 276.145 53.6628 275.677 53.1325C275.451 52.8837 275.198 52.6775 274.96 52.449C274.687 52.1908 274.427 51.9157 274.125 51.6877C273.8 51.4362 273.44 51.251 273.094 51.0435C272.834 50.8875 272.591 50.6984 272.316 50.5647C271.664 50.2503 270.986 49.9926 270.294 49.8069L235.015 40.4896C232.097 39.7189 229.136 40.1984 226.708 41.6003C224.273 43.0063 222.377 45.3308 221.586 48.2433C220 54.0649 223.448 60.0356 229.286 61.5804L239.062 64.1623L198.704 87.4632C170.917 66.9115 133.333 64.6179 102.771 82.2631C69.8559 101.266 52.9016 138.884 60.5756 175.867C61.797 181.756 67.5854 185.52 73.5097 184.262Z" fill="white"/>
</g>
<g id="chain-center" filter="url(#filter2_i_72_805)">
<path id="Vector_5" d="M170.248 128.345C167.499 127.601 164.628 127.409 161.803 127.781C158.978 128.153 156.255 129.08 153.791 130.512L140.477 138.2C137.645 139.832 135.219 142.084 133.38 144.787C131.541 147.491 130.338 150.575 129.86 153.809C129.383 157.043 129.644 160.344 130.622 163.462C131.601 166.582 133.273 169.44 135.513 171.821L144.674 166.531C143.064 165.412 141.763 163.905 140.891 162.149C140.02 160.393 139.605 158.446 139.688 156.487C139.771 154.528 140.346 152.623 141.362 150.947C142.378 149.27 143.801 147.877 145.498 146.897L158.813 139.21C161.423 137.698 164.519 137.259 167.447 137.986C170.375 138.712 172.906 140.547 174.507 143.103C176.109 145.66 176.654 148.739 176.03 151.689C175.406 154.641 173.66 157.234 171.161 158.924C171.513 162.361 171.234 165.836 170.335 169.174C170.128 169.951 169.882 170.711 169.613 171.459L175.478 168.074C179.193 165.93 182.188 162.731 184.085 158.885C185.982 155.038 186.696 150.715 186.136 146.463C185.576 142.21 183.768 138.22 180.94 134.994C178.112 131.769 174.392 129.456 170.248 128.345Z" fill="white"/>
<path id="Vector_6" d="M158.729 146.989L149.563 152.282C151.173 153.4 152.475 154.905 153.347 156.662C154.22 158.417 154.635 160.364 154.553 162.322C154.472 164.281 153.896 166.188 152.88 167.864C151.864 169.541 150.441 170.933 148.743 171.912L135.429 179.6C132.818 181.112 129.723 181.551 126.795 180.824C123.867 180.098 121.336 178.262 119.734 175.707C118.133 173.15 117.587 170.071 118.211 167.12C118.835 164.169 120.581 161.575 123.08 159.886C122.729 156.447 123.008 152.973 123.906 149.635C124.114 148.858 124.359 148.099 124.628 147.35L118.763 150.736C113.782 153.611 110.148 158.348 108.659 163.904C107.171 169.46 107.95 175.379 110.826 180.36C113.701 185.341 118.438 188.975 123.994 190.464C129.549 191.953 135.469 191.174 140.45 188.298L153.765 180.609C156.597 178.976 159.023 176.725 160.862 174.021C162.701 171.319 163.904 168.234 164.381 165C164.859 161.766 164.599 158.466 163.62 155.346C162.641 152.228 160.969 149.37 158.729 146.989Z" fill="white"/>
</g>
</g>
</g>
<defs>
<filter id="filter0_i_72_805" x="16.9893" y="134.306" width="219.615" height="145.381" filterUnits="userSpaceOnUse" color-interpolation-filters="sRGB">
<feFlood flood-opacity="0" result="BackgroundImageFix"/>
<feBlend mode="normal" in="SourceGraphic" in2="BackgroundImageFix" result="shape"/>
<feColorMatrix in="SourceAlpha" type="matrix" values="0 0 0 0 0 0 0 0 0 0 0 0 0 0 0 0 0 0 127 0" result="hardAlpha"/>
<feOffset dy="1"/>
<feGaussianBlur stdDeviation="2"/>
<feComposite in2="hardAlpha" operator="arithmetic" k2="-1" k3="1"/>
<feColorMatrix type="matrix" values="0 0 0 0 0 0 0 0 0 0 0 0 0 0 0 0 0 0 0.25 0"/>
<feBlend mode="normal" in2="shape" result="effect1_innerShadow_72_805"/>
</filter>
<filter id="filter1_i_72_805" x="58.748" y="40.123" width="219.615" height="145.381" filterUnits="userSpaceOnUse" color-interpolation-filters="sRGB">
<feFlood flood-opacity="0" result="BackgroundImageFix"/>
<feBlend mode="normal" in="SourceGraphic" in2="BackgroundImageFix" result="shape"/>
<feColorMatrix in="SourceAlpha" type="matrix" values="0 0 0 0 0 0 0 0 0 0 0 0 0 0 0 0 0 0 127 0" result="hardAlpha"/>
<feOffset dy="1"/>
<feGaussianBlur stdDeviation="2"/>
<feComposite in2="hardAlpha" operator="arithmetic" k2="-1" k3="1"/>
<feColorMatrix type="matrix" values="0 0 0 0 0 0 0 0 0 0 0 0 0 0 0 0 0 0 0.25 0"/>
<feBlend mode="normal" in2="shape" result="effect1_innerShadow_72_805"/>
</filter>
<filter id="filter2_i_72_805" x="107.92" y="127.596" width="78.4009" height="64.1068" filterUnits="userSpaceOnUse" color-interpolation-filters="sRGB">
<feFlood flood-opacity="0" result="BackgroundImageFix"/>
<feBlend mode="normal" in="SourceGraphic" in2="BackgroundImageFix" result="shape"/>
<feColorMatrix in="SourceAlpha" type="matrix" values="0 0 0 0 0 0 0 0 0 0 0 0 0 0 0 0 0 0 127 0" result="hardAlpha"/>
<feOffset dy="0.5"/>
<feGaussianBlur stdDeviation="2"/>
<feComposite in2="hardAlpha" operator="arithmetic" k2="-1" k3="1"/>
<feColorMatrix type="matrix" values="0 0 0 0 0 0 0 0 0 0 0 0 0 0 0 0 0 0 0.25 0"/>
<feBlend mode="normal" in2="shape" result="effect1_innerShadow_72_805"/>
</filter>
<linearGradient id="paint0_linear_72_805" x1="118.768" y1="100.114" x2="206.558" y2="280.572" gradientUnits="userSpaceOnUse">
<stop stop-color="#0076FC"/>
<stop offset="1" stop-color="#0860B9"/>
</linearGradient>
</defs>
</svg>
