<svg width="62" height="62" viewBox="0 0 62 62" fill="none" xmlns="http://www.w3.org/2000/svg">
<circle cx="31" cy="31" r="31" fill="white"/>
<path d="M31 59C46.464 59 59 46.464 59 31C59 15.536 46.464 3 31 3C15.536 3 3 15.536 3 31C3 46.464 15.536 59 31 59Z" fill="#FF0420"/>
<path d="M22.835 38.4368C21.1662 38.4368 19.7998 38.0448 18.7358 37.2608C17.683 36.4656 17.1566 35.3232 17.1566 33.856C17.1566 33.5424 17.1902 33.1728 17.2574 32.7248C17.4366 31.7168 17.6942 30.5072 18.0302 29.0848C18.9822 25.232 21.4462 23.3056 25.411 23.3056C26.4862 23.3056 27.4606 23.4848 28.3118 23.8544C29.163 24.2016 29.835 24.7392 30.3278 25.456C30.8206 26.1616 31.067 27.0016 31.067 27.976C31.067 28.2672 31.0334 28.6368 30.9662 29.0848C30.7534 30.328 30.507 31.5488 30.2046 32.7248C29.7118 34.64 28.8718 36.0848 27.6622 37.0368C26.4638 37.9776 24.851 38.4368 22.835 38.4368ZM23.1374 35.4128C23.9214 35.4128 24.5822 35.1776 25.131 34.7184C25.691 34.2592 26.0942 33.5536 26.3294 32.5904C26.6542 31.2688 26.9006 30.1264 27.0686 29.1408C27.1246 28.8496 27.1582 28.5472 27.1582 28.2336C27.1582 26.9568 26.4974 26.3184 25.1646 26.3184C24.3806 26.3184 23.7086 26.5536 23.1486 27.0128C22.5998 27.472 22.2078 28.1776 21.9726 29.1408C21.715 30.0816 21.4686 31.224 21.211 32.5904C21.155 32.8704 21.1214 33.1616 21.1214 33.4752C21.1102 34.7744 21.7934 35.4128 23.1374 35.4128Z" fill="white"/>
<path d="M32.0417 38.2352C31.8849 38.2352 31.7729 38.1904 31.6833 38.0896C31.6161 37.9776 31.5937 37.8544 31.6161 37.7088L34.5169 24.0448C34.5393 23.888 34.6177 23.7648 34.7521 23.664C34.8753 23.5632 35.0097 23.5184 35.1553 23.5184H40.7441C42.3009 23.5184 43.5441 23.8432 44.4849 24.4816C45.4369 25.1312 45.9185 26.0608 45.9185 27.2816C45.9185 27.6288 45.8737 27.9984 45.7953 28.3792C45.4481 29.992 44.7425 31.1792 43.6673 31.952C42.6145 32.7248 41.1697 33.1056 39.3329 33.1056H36.4993L35.5361 37.7088C35.5025 37.8656 35.4353 37.9888 35.3009 38.0896C35.1777 38.1904 35.0433 38.2352 34.8977 38.2352H32.0417ZM39.4785 30.2048C40.0721 30.2048 40.5761 30.048 41.0129 29.7232C41.4609 29.3984 41.7521 28.9392 41.8977 28.3344C41.9425 28.0992 41.9649 27.8864 41.9649 27.7072C41.9649 27.304 41.8417 26.9904 41.6065 26.7776C41.3713 26.5536 40.9569 26.4416 40.3857 26.4416H37.8657L37.0705 30.2048H39.4785Z" fill="white"/>
</svg>
