<svg width="62" height="62" viewBox="0 0 62 62" fill="none" xmlns="http://www.w3.org/2000/svg">
<circle cx="31" cy="31" r="31" fill="white"/>
<path d="M42.597 23.2278C41.785 22.7638 40.741 22.7638 39.813 23.2278L33.317 27.0558L28.909 29.4918L22.529 33.3198C21.717 33.7838 20.673 33.7838 19.745 33.3198L14.757 30.3038C13.945 29.8398 13.365 28.9118 13.365 27.8678V22.0678C13.365 21.1398 13.829 20.2118 14.757 19.6318L19.745 16.7318C20.557 16.2678 21.601 16.2678 22.529 16.7318L27.517 19.7478C28.329 20.2118 28.909 21.1398 28.909 22.1838V26.0118L33.317 23.4598V19.5158C33.317 18.5878 32.853 17.6598 31.925 17.0798L22.645 11.6278C21.833 11.1638 20.789 11.1638 19.861 11.6278L10.349 17.1958C9.42103 17.6598 8.95703 18.5878 8.95703 19.5158V30.4198C8.95703 31.3478 9.42103 32.2758 10.349 32.8558L19.745 38.3078C20.557 38.7718 21.601 38.7718 22.529 38.3078L28.909 34.5958L33.317 32.0438L39.697 28.3318C40.509 27.8678 41.553 27.8678 42.481 28.3318L47.469 31.2318C48.281 31.6958 48.861 32.6238 48.861 33.6678V39.4678C48.861 40.3958 48.397 41.3238 47.469 41.9038L42.597 44.8038C41.785 45.2678 40.741 45.2678 39.813 44.8038L34.825 41.9038C34.013 41.4398 33.433 40.5118 33.433 39.4678V35.7558L29.025 38.3078V42.1358C29.025 43.0638 29.489 43.9918 30.417 44.5718L39.813 50.0238C40.625 50.4878 41.669 50.4878 42.597 50.0238L51.993 44.5718C52.805 44.1078 53.385 43.1798 53.385 42.1358V31.1158C53.385 30.1878 52.921 29.2598 51.993 28.6798L42.597 23.2278Z" fill="#8247E5"/>
</svg>
