<svg width="50" height="50" viewBox="0 0 50 50" fill="none" xmlns="http://www.w3.org/2000/svg">
<circle cx="25" cy="25" r="24.5" fill="url(#paint0_radial_13_624)" stroke="#FF6600"/>
<path d="M12.1013 28.2734L12.1013 28.2734L25.5656 15.3269L25.6003 15.3629L25.5656 15.3269C25.6622 15.234 25.7928 15.1822 25.9285 15.1822H28.2496H28.25V15.2322C28.3115 15.2313 28.3727 15.2422 28.4298 15.2642C28.4869 15.2862 28.5389 15.319 28.5828 15.3606C28.6267 15.4021 28.6615 15.4516 28.6853 15.5062C28.709 15.5608 28.7213 15.6194 28.7213 15.6786C28.7213 15.7378 28.709 15.7964 28.6853 15.851C28.6615 15.9056 28.6267 15.9551 28.5828 15.9966C28.5389 16.0382 28.4869 16.0709 28.4298 16.093C28.3727 16.115 28.3115 16.1259 28.25 16.125L12.1013 28.2734ZM12.1013 28.2734C12.0047 28.3663 11.95 28.4928 11.95 28.6251C11.95 28.7574 12.0047 28.8838 12.1013 28.9768L12.1013 28.9768L16.7442 33.441L21.387 37.9054L21.4217 37.8693L21.387 37.9054C21.4836 37.9982 21.6142 38.05 21.7499 38.05C21.8857 38.05 22.0163 37.9982 22.1129 37.9054L22.0782 37.8693L22.1129 37.9054L35.5772 24.9589C35.6738 24.866 35.7285 24.7395 35.7286 24.6072V15.6786C35.7286 15.5463 35.6739 15.4198 35.5772 15.3269C35.4806 15.234 35.3501 15.1822 35.2143 15.1822H32.4289L12.1013 28.2734ZM31.9806 18.2481L31.983 18.1982C31.9659 18.1974 31.9488 18.1974 31.9319 18.1982L31.9317 18.1982L31.655 19.0312L31.6224 19.0691C31.6225 19.0691 31.6226 19.0692 31.6227 19.0693C31.8086 19.2296 31.9143 19.4574 31.9143 19.6964C31.9143 20.1654 31.5283 20.5393 31.0357 20.5393C30.5433 20.5393 30.1574 20.1656 30.1571 19.6969M31.9806 18.2481L31.9828 18.1982C32.1032 18.2034 32.2181 18.2493 32.3073 18.3282C32.711 18.676 32.9428 19.1741 32.9428 19.6964C32.9428 20.7068 32.0816 21.5322 31.0357 21.5322C29.9899 21.5322 29.1287 20.707 29.1285 19.6968C29.1276 19.6309 29.1403 19.5655 29.1659 19.5044C29.1914 19.4432 29.2293 19.3876 29.2773 19.3409C29.3252 19.2941 29.3822 19.2571 29.445 19.2319C29.5077 19.2067 29.5749 19.1937 29.6428 19.1937C29.7107 19.1937 29.778 19.2067 29.8407 19.2319C29.9034 19.2571 29.9604 19.2941 30.0084 19.3409C30.0563 19.3876 30.0942 19.4432 30.1198 19.5044C30.1453 19.5655 30.158 19.6309 30.1571 19.6969M31.9806 18.2481C31.9652 18.2474 31.9497 18.2474 31.9343 18.2482L29.1785 19.6964C29.1785 20.6774 30.0155 21.4822 31.0357 21.4822C32.0559 21.4822 32.8928 20.6774 32.8928 19.6964C32.8928 19.189 32.6675 18.7045 32.2744 18.3659C32.194 18.2946 32.0899 18.2529 31.9806 18.2481ZM30.1571 19.6969C30.1571 19.697 30.1571 19.6971 30.1571 19.6972L30.1071 19.6964H30.1571C30.1571 19.6966 30.1571 19.6968 30.1571 19.6969ZM30.6911 19.7767L30.6548 19.8111C30.7005 19.8593 30.7555 19.8982 30.8167 19.9258C30.8778 19.9534 30.944 19.969 31.0113 19.9719C31.0786 19.9749 31.146 19.9649 31.2094 19.9428C31.2728 19.9206 31.3312 19.8866 31.3811 19.8426C31.4311 19.7986 31.4716 19.7454 31.5003 19.686C31.529 19.6267 31.5453 19.5624 31.5482 19.4969C31.5511 19.4314 31.5405 19.3659 31.517 19.3044C31.4936 19.243 31.4579 19.1867 31.412 19.1388C30.867 18.5666 30.5652 17.82 30.5652 17.0449C30.5652 15.3282 32.0031 13.9429 33.7933 13.9429C35.5835 13.9429 37.0214 15.3282 37.0214 17.0449C37.0214 17.7958 36.7377 18.5215 36.223 19.0872C36.1777 19.136 36.1429 19.1932 36.1206 19.2552C36.0983 19.3174 36.0889 19.3833 36.0932 19.449C36.0975 19.5148 36.1152 19.579 36.1454 19.6379C36.1756 19.6969 36.2175 19.7494 36.2687 19.7924C36.32 19.8355 36.3794 19.8682 36.4437 19.8889C36.5079 19.9096 36.5757 19.9179 36.6433 19.9132C36.7108 19.9085 36.7767 19.891 36.8373 19.8617C36.8977 19.8324 36.9517 19.7919 36.996 19.7423C37.6752 18.996 38.05 18.0373 38.05 17.0449C38.05 14.7868 36.1369 12.95 33.7933 12.95C31.4497 12.95 29.5366 14.7868 29.5366 17.0449C29.5366 18.0692 29.9361 19.0563 30.6549 19.8112L30.6911 19.7767ZM30.6911 19.7767C30.7323 19.8201 30.7819 19.8553 30.8372 19.8802C30.8925 19.9052 30.9524 19.9193 31.0135 19.922C31.0745 19.9246 31.1355 19.9156 31.1929 19.8956C31.2503 19.8755 31.303 19.8448 31.3481 19.8051C31.3931 19.7654 31.4296 19.7175 31.4553 19.6643C31.4811 19.611 31.4957 19.5534 31.4983 19.4947C31.5008 19.436 31.4913 19.3774 31.4703 19.3223C31.4493 19.2671 31.4171 19.2165 31.3757 19.1733L30.6911 19.7767ZM26.1409 16.175H28.2496L32.4286 15.2322C32.367 15.2313 32.3059 15.2422 32.2487 15.2642C32.1916 15.2862 32.1396 15.319 32.0957 15.3606C32.0519 15.4021 32.017 15.4516 31.9933 15.5062C31.9695 15.5608 31.9573 15.6194 31.9573 15.6786C31.9573 15.7378 31.9695 15.7964 31.9933 15.851C32.017 15.9056 32.0519 15.9551 32.0957 15.9966C32.1396 16.0382 32.1916 16.0709 32.2487 16.093C32.3059 16.115 32.367 16.1259 32.4286 16.125V16.175H32.4289H34.7V24.4011L21.7499 36.853L17.47 32.7377L13.1929 28.6251L26.1409 16.175Z" fill="#FF6600" stroke="#FF6600" stroke-width="0.1"/>
<defs>
<radialGradient id="paint0_radial_13_624" cx="0" cy="0" r="1" gradientUnits="userSpaceOnUse" gradientTransform="translate(25 25) rotate(134.061) scale(41.4801)">
<stop offset="0.500382" stop-color="white" stop-opacity="0"/>
<stop offset="0.975691" stop-color="#FF6600"/>
</radialGradient>
</defs>
</svg>
