<svg width="50" height="50" viewBox="0 0 50 50" fill="none" xmlns="http://www.w3.org/2000/svg">
<circle cx="25" cy="25" r="24.5" fill="url(#paint0_radial_13_652)" stroke="#FF6600"/>
<path d="M34.1911 22.8665V18.7985C34.1911 17.7922 33.4226 17 32.4924 17H16.6987C16.638 17 16.5976 17 16.5571 17C15.6673 17.0856 15 17.8564 15 18.7985V32.2015C15 33.2078 15.7685 34 16.7189 34H32.5126C33.4631 34 34.2113 33.1864 34.2113 32.2015V28.0479C34.6764 27.9194 35 27.4912 35 26.9773V23.937C34.9798 23.4232 34.6562 22.995 34.1911 22.8665ZM33.3822 32.1801C33.3822 32.694 32.9778 33.1222 32.4924 33.1222H16.6987C16.1931 33.1222 15.7887 32.694 15.7887 32.1801V18.7985C15.7887 18.306 16.1527 17.8992 16.6178 17.8564H32.4924C32.9778 17.8564 33.3822 18.2846 33.3822 18.7985V22.8237H29.6208C28.2457 22.8665 27.1739 24.0655 27.2144 25.5214C27.2548 26.9131 28.3064 28.0264 29.6208 28.0693H33.4024V32.1801H33.3822ZM34.1709 26.9773C34.1709 27.1058 34.0698 27.2128 33.9484 27.2128H29.6208C28.6906 27.17 27.9828 26.3564 28.003 25.3929C28.0435 24.4723 28.731 23.7229 29.6208 23.6801H33.9484C34.0698 23.6801 34.1709 23.7872 34.1709 23.9156V26.9773Z" fill="#FF6600"/>
<path d="M30.0859 24.1725C29.4388 24.1725 28.9333 24.7292 28.913 25.4144C28.913 26.0995 29.4388 26.6562 30.0859 26.6562C30.7331 26.6562 31.2588 26.0995 31.2588 25.4144C31.2588 24.7292 30.7331 24.1725 30.0859 24.1725ZM30.0859 25.9924C29.7826 25.9924 29.5197 25.7355 29.5197 25.3929C29.5197 25.0718 29.7624 24.7935 30.0657 24.7935C30.3691 24.7935 30.632 25.0504 30.632 25.3929C30.6522 25.7355 30.4095 25.9924 30.0859 25.9924Z" fill="#FF6600"/>
<defs>
<radialGradient id="paint0_radial_13_652" cx="0" cy="0" r="1" gradientUnits="userSpaceOnUse" gradientTransform="translate(25 25) rotate(134.061) scale(41.4801)">
<stop offset="0.500382" stop-color="white" stop-opacity="0"/>
<stop offset="0.975691" stop-color="#FF6600"/>
</radialGradient>
</defs>
</svg>
