<svg width="210" height="60" viewBox="0 0 210 60" fill="none" xmlns="http://www.w3.org/2000/svg">
<g id="logo">
<g id="Group 416">
<g id="ZipChain" filter="url(#filter0_d_6_2294)">
<path d="M79.356 25.088H71.484C71.3347 24.8534 71.196 24.5334 71.068 24.128C70.94 23.7227 70.876 23.296 70.876 22.848C70.876 22.016 71.0573 21.4187 71.42 21.056C71.804 20.6934 72.2947 20.512 72.892 20.512H84.828C85.7667 21.28 86.236 22.304 86.236 23.584C86.236 24.1174 86.108 24.6507 85.852 25.184C85.6173 25.696 85.308 26.1867 84.924 26.656L77.66 35.424H85.852C86.0013 35.6587 86.14 35.9787 86.268 36.384C86.396 36.7894 86.46 37.216 86.46 37.664C86.46 38.496 86.268 39.0934 85.884 39.456C85.5213 39.8187 85.0413 40 84.444 40H71.836C71.4733 39.7014 71.1747 39.296 70.94 38.784C70.7053 38.272 70.588 37.6854 70.588 37.024C70.588 36.4907 70.7267 35.9467 71.004 35.392C71.2813 34.8374 71.612 34.3254 71.996 33.856L79.356 25.088Z" fill="white"/>
<path d="M88.9423 20.128C88.9423 19.3174 89.2089 18.6347 89.7423 18.08C90.2969 17.5254 91.0223 17.248 91.9183 17.248C92.8143 17.248 93.5289 17.5254 94.0623 18.08C94.6169 18.6347 94.8943 19.3174 94.8943 20.128C94.8943 20.9387 94.6169 21.6214 94.0623 22.176C93.5289 22.7307 92.8143 23.008 91.9183 23.008C91.0223 23.008 90.2969 22.7307 89.7423 22.176C89.2089 21.6214 88.9423 20.9387 88.9423 20.128ZM94.6383 39.968C94.4036 40.0107 94.0516 40.064 93.5823 40.128C93.1343 40.2134 92.6756 40.256 92.2063 40.256C91.7369 40.256 91.3103 40.224 90.9263 40.16C90.5636 40.096 90.2543 39.968 89.9983 39.776C89.7423 39.584 89.5396 39.328 89.3903 39.008C89.2623 38.6667 89.1983 38.2294 89.1983 37.696V24.672C89.4329 24.6294 89.7743 24.576 90.2223 24.512C90.6916 24.4267 91.1609 24.384 91.6303 24.384C92.0996 24.384 92.5156 24.416 92.8783 24.48C93.2623 24.544 93.5823 24.672 93.8383 24.864C94.0943 25.056 94.2863 25.3227 94.4143 25.664C94.5636 25.984 94.6383 26.4107 94.6383 26.944V39.968Z" fill="white"/>
<path d="M105.238 23.968C106.518 23.968 107.702 24.1387 108.79 24.48C109.899 24.8 110.848 25.3014 111.638 25.984C112.427 26.6667 113.046 27.5307 113.494 28.576C113.942 29.6 114.166 30.8267 114.166 32.256C114.166 33.6214 113.974 34.816 113.59 35.84C113.206 36.864 112.662 37.728 111.958 38.432C111.254 39.1147 110.4 39.6267 109.398 39.968C108.416 40.3094 107.318 40.48 106.102 40.48C105.184 40.48 104.331 40.3414 103.542 40.064V45.376C103.328 45.44 102.987 45.504 102.518 45.568C102.048 45.6534 101.568 45.696 101.078 45.696C100.608 45.696 100.182 45.664 99.7975 45.6C99.4348 45.536 99.1255 45.408 98.8695 45.216C98.6135 45.024 98.4215 44.7574 98.2935 44.416C98.1655 44.096 98.1015 43.6694 98.1015 43.136V27.776C98.1015 27.2 98.2188 26.7307 98.4535 26.368C98.7095 26.0054 99.0508 25.6747 99.4775 25.376C100.139 24.9494 100.96 24.608 101.942 24.352C102.923 24.096 104.022 23.968 105.238 23.968ZM105.302 36.192C107.499 36.192 108.598 34.88 108.598 32.256C108.598 30.8907 108.32 29.8774 107.766 29.216C107.232 28.5547 106.454 28.224 105.43 28.224C105.024 28.224 104.662 28.2774 104.342 28.384C104.022 28.4694 103.744 28.576 103.51 28.704V35.744C103.766 35.872 104.043 35.9787 104.342 36.064C104.64 36.1494 104.96 36.192 105.302 36.192Z" fill="white"/>
<path d="M127.124 24.512C125.482 24.512 124.223 25.0134 123.348 26.016C122.474 27.0187 122.036 28.4374 122.036 30.272C122.036 32.128 122.516 33.5574 123.476 34.56C124.458 35.5627 125.77 36.064 127.412 36.064C128.287 36.064 129.023 35.9467 129.62 35.712C130.239 35.4774 130.826 35.2107 131.38 34.912C131.743 35.2107 132.02 35.5734 132.212 36C132.426 36.4054 132.532 36.8854 132.532 37.44C132.532 38.3147 132.042 39.0614 131.06 39.68C130.1 40.2774 128.628 40.576 126.644 40.576C125.215 40.576 123.871 40.3734 122.612 39.968C121.354 39.5627 120.255 38.944 119.316 38.112C118.378 37.2587 117.631 36.192 117.076 34.912C116.543 33.6107 116.276 32.064 116.276 30.272C116.276 28.608 116.532 27.1467 117.044 25.888C117.578 24.608 118.292 23.5307 119.188 22.656C120.106 21.7814 121.172 21.12 122.388 20.672C123.604 20.224 124.906 20 126.292 20C128.255 20 129.77 20.32 130.836 20.96C131.924 21.6 132.468 22.4214 132.468 23.424C132.468 23.9787 132.33 24.4587 132.052 24.864C131.775 25.2694 131.455 25.5894 131.092 25.824C130.538 25.4614 129.94 25.152 129.3 24.896C128.682 24.64 127.956 24.512 127.124 24.512Z" fill="white"/>
<path d="M150.462 39.968C150.248 40.032 149.907 40.096 149.438 40.16C148.99 40.224 148.52 40.256 148.03 40.256C147.56 40.256 147.134 40.224 146.75 40.16C146.387 40.096 146.078 39.968 145.822 39.776C145.566 39.584 145.363 39.328 145.214 39.008C145.086 38.6667 145.022 38.2294 145.022 37.696V30.592C145.022 29.7174 144.798 29.1094 144.35 28.768C143.923 28.4054 143.39 28.224 142.75 28.224C142.323 28.224 141.918 28.2774 141.534 28.384C141.15 28.4907 140.84 28.6187 140.606 28.768V39.968C140.392 40.032 140.051 40.096 139.582 40.16C139.134 40.224 138.664 40.256 138.174 40.256C137.704 40.256 137.278 40.224 136.894 40.16C136.531 40.096 136.222 39.968 135.966 39.776C135.71 39.584 135.507 39.328 135.358 39.008C135.23 38.6667 135.166 38.2294 135.166 37.696V19.136C135.4 19.0934 135.742 19.04 136.19 18.976C136.659 18.8907 137.128 18.848 137.598 18.848C138.067 18.848 138.483 18.88 138.846 18.944C139.23 19.008 139.55 19.136 139.806 19.328C140.062 19.52 140.254 19.7867 140.382 20.128C140.531 20.448 140.606 20.8747 140.606 21.408V24.544C140.883 24.4374 141.299 24.32 141.854 24.192C142.43 24.0427 143.059 23.968 143.742 23.968C145.854 23.968 147.496 24.5014 148.67 25.568C149.864 26.6134 150.462 28.1814 150.462 30.272V39.968Z" fill="white"/>
<path d="M160.476 36.544C160.839 36.544 161.234 36.512 161.66 36.448C162.108 36.3627 162.439 36.256 162.652 36.128V33.568L160.348 33.76C159.751 33.8027 159.26 33.9307 158.876 34.144C158.492 34.3574 158.3 34.6774 158.3 35.104C158.3 35.5307 158.46 35.8827 158.78 36.16C159.122 36.416 159.687 36.544 160.476 36.544ZM160.22 23.968C161.372 23.968 162.418 24.0854 163.356 24.32C164.316 24.5547 165.127 24.9174 165.788 25.408C166.471 25.8774 166.994 26.4854 167.356 27.232C167.719 27.9574 167.9 28.8214 167.9 29.824V36.992C167.9 37.5467 167.74 38.0054 167.42 38.368C167.122 38.7094 166.759 39.008 166.332 39.264C164.946 40.096 162.994 40.512 160.476 40.512C159.346 40.512 158.322 40.4054 157.404 40.192C156.508 39.9787 155.73 39.6587 155.068 39.232C154.428 38.8054 153.927 38.2614 153.564 37.6C153.223 36.9387 153.052 36.1707 153.052 35.296C153.052 33.824 153.49 32.6934 154.364 31.904C155.239 31.1147 156.594 30.624 158.428 30.432L162.62 29.984V29.76C162.62 29.1414 162.343 28.704 161.788 28.448C161.255 28.1707 160.476 28.032 159.452 28.032C158.642 28.032 157.852 28.1174 157.084 28.288C156.316 28.4587 155.623 28.672 155.004 28.928C154.727 28.736 154.492 28.448 154.3 28.064C154.108 27.6587 154.012 27.2427 154.012 26.816C154.012 26.2614 154.14 25.824 154.396 25.504C154.674 25.1627 155.09 24.8747 155.644 24.64C156.263 24.4054 156.988 24.2347 157.82 24.128C158.674 24.0214 159.474 23.968 160.22 23.968Z" fill="white"/>
<path d="M171.099 20.128C171.099 19.3174 171.365 18.6347 171.899 18.08C172.453 17.5254 173.179 17.248 174.075 17.248C174.971 17.248 175.685 17.5254 176.219 18.08C176.773 18.6347 177.051 19.3174 177.051 20.128C177.051 20.9387 176.773 21.6214 176.219 22.176C175.685 22.7307 174.971 23.008 174.075 23.008C173.179 23.008 172.453 22.7307 171.899 22.176C171.365 21.6214 171.099 20.9387 171.099 20.128ZM176.795 39.968C176.56 40.0107 176.208 40.064 175.739 40.128C175.291 40.2134 174.832 40.256 174.363 40.256C173.893 40.256 173.467 40.224 173.083 40.16C172.72 40.096 172.411 39.968 172.155 39.776C171.899 39.584 171.696 39.328 171.547 39.008C171.419 38.6667 171.355 38.2294 171.355 37.696V24.672C171.589 24.6294 171.931 24.576 172.379 24.512C172.848 24.4267 173.317 24.384 173.787 24.384C174.256 24.384 174.672 24.416 175.035 24.48C175.419 24.544 175.739 24.672 175.995 24.864C176.251 25.056 176.443 25.3227 176.571 25.664C176.72 25.984 176.795 26.4107 176.795 26.944V39.968Z" fill="white"/>
<path d="M190.114 30.144C190.114 29.4827 189.922 29.0027 189.538 28.704C189.175 28.384 188.674 28.224 188.034 28.224C187.607 28.224 187.18 28.2774 186.754 28.384C186.348 28.4907 185.996 28.6507 185.698 28.864V39.968C185.484 40.032 185.143 40.096 184.674 40.16C184.226 40.224 183.756 40.256 183.266 40.256C182.796 40.256 182.37 40.224 181.986 40.16C181.623 40.096 181.314 39.968 181.058 39.776C180.802 39.584 180.599 39.328 180.45 39.008C180.322 38.6667 180.258 38.2294 180.258 37.696V28.096C180.258 27.52 180.375 27.0507 180.61 26.688C180.866 26.3254 181.207 25.9947 181.634 25.696C182.359 25.184 183.266 24.768 184.354 24.448C185.463 24.128 186.69 23.968 188.034 23.968C190.444 23.968 192.3 24.5014 193.602 25.568C194.903 26.6134 195.554 28.0747 195.554 29.952V39.968C195.34 40.032 194.999 40.096 194.53 40.16C194.082 40.224 193.612 40.256 193.122 40.256C192.652 40.256 192.226 40.224 191.842 40.16C191.479 40.096 191.17 39.968 190.914 39.776C190.658 39.584 190.455 39.328 190.306 39.008C190.178 38.6667 190.114 38.2294 190.114 37.696V30.144Z" fill="white"/>
</g>
<g id="Group 329">
<g id="Ellipse 36">
<circle cx="36.75" cy="29.8499" r="17.25" fill="url(#paint0_linear_6_2294)"/>
<circle cx="36.75" cy="29.8499" r="17.25" fill="#FF6600"/>
</g>
<g id="Vector" filter="url(#filter1_d_6_2294)">
<path d="M61.9567 9.11494C61.896 9.04578 61.8257 8.98839 61.7571 8.92916C61.7199 8.89763 61.689 8.85977 61.6488 8.83088C61.5667 8.76865 61.478 8.71836 61.3868 8.66858C61.3556 8.65064 61.3263 8.62805 61.2941 8.61156C61.1669 8.55113 61.0358 8.50107 60.9002 8.46526L53.9686 6.63516C52.8219 6.33228 51.6409 7.01411 51.3291 8.15908C51.0174 9.30405 51.695 10.4762 52.8422 10.7797L54.7627 11.2864L46.8333 15.8644C41.3734 11.8262 33.9885 11.3755 27.9833 14.8426C21.5158 18.5766 18.1845 25.9681 19.6923 33.235C19.9327 34.3928 21.0708 35.1319 22.2346 34.8859C22.4642 34.8369 22.6778 34.754 22.8699 34.6431C23.6545 34.1901 24.0988 33.2732 23.9065 32.3429C22.7748 26.892 25.2744 21.3482 30.1231 18.5488C34.9718 15.7494 41.0213 16.3574 45.177 20.0615C45.868 20.6769 46.8799 20.7791 47.6869 20.3132L56.9018 14.993L56.3799 16.9088C56.0688 18.0534 56.7462 19.2266 57.8933 19.5302C58.4667 19.6816 59.0485 19.5874 59.527 19.3111C60.0041 19.0357 60.3766 18.5789 60.5325 18.0073L62.4144 11.0879C62.4228 11.057 62.4237 11.0241 62.4313 10.9919C62.4541 10.8871 62.4768 10.7823 62.4837 10.675C62.4868 10.6319 62.4802 10.589 62.4812 10.5453C62.4827 10.4492 62.4849 10.3527 62.472 10.2568C62.4657 10.2065 62.4497 10.1601 62.4395 10.1111C62.4222 10.0232 62.408 9.93432 62.38 9.84809C62.3345 9.71443 62.2776 9.58463 62.2057 9.45996C62.1337 9.3353 62.0497 9.22117 61.9567 9.11494ZM51.2533 25.1158C50.088 25.3654 49.3403 26.5015 49.5807 27.6592C50.7127 33.109 48.2131 38.6528 43.3644 41.4522C38.5157 44.2516 32.4662 43.6436 28.3105 39.9395C27.6195 39.3241 26.6076 39.2219 25.8006 39.6878L16.5857 45.008L17.1068 43.0908C17.4183 41.9469 16.741 40.7737 15.5938 40.4702C14.4466 40.1666 13.2661 40.8491 12.9543 41.9941L11.0725 48.9135C11.0361 49.0495 11.0129 49.1896 11.0024 49.3313C10.9987 49.3955 11.0062 49.4603 11.0078 49.5241C11.009 49.5998 11.0059 49.6743 11.0154 49.7488C11.0255 49.8274 11.0483 49.9014 11.0663 49.9781C11.0813 50.0369 11.0889 50.0972 11.1095 50.1563C11.155 50.29 11.2121 50.4187 11.2825 50.5407C11.2833 50.542 11.2858 50.5433 11.2866 50.5446C11.3562 50.6652 11.4373 50.7774 11.5292 50.8817C11.5737 50.9305 11.6233 50.9711 11.67 51.0159C11.7238 51.0667 11.7749 51.1207 11.8342 51.1655C11.898 51.2149 11.9688 51.2513 12.0367 51.2921C12.0879 51.3228 12.1356 51.3599 12.1897 51.3862C12.3176 51.448 12.4509 51.4986 12.5869 51.5351L19.5189 53.3659C20.0923 53.5173 20.674 53.4231 21.1512 53.1476C21.6297 52.8714 22.0022 52.4146 22.1577 51.8423C22.4692 50.6984 21.7918 49.5252 20.6447 49.2217L18.7238 48.7144L26.6538 44.1359C32.1137 48.1742 39.4986 48.6249 45.5038 45.1577C51.9713 41.4238 55.3026 34.0322 53.7948 26.7653C53.5548 25.6083 52.4174 24.8687 51.2533 25.1158Z" fill="white"/>
</g>
<g id="Vector_2" filter="url(#filter2_d_6_2294)">
<path d="M41.1154 23.8973C40.5751 23.7509 40.011 23.7132 39.456 23.7862C38.9009 23.8593 38.3659 24.0417 37.8818 24.3229L35.2656 25.8335C34.7091 26.1543 34.2323 26.5968 33.8711 27.128C33.5098 27.6591 33.2734 28.2651 33.1796 28.9006C33.0857 29.5361 33.1369 30.1845 33.3292 30.7974C33.5215 31.4103 33.85 31.9718 34.2901 32.4397L36.0902 31.4003C35.7739 31.1805 35.5182 30.8844 35.347 30.5393C35.1757 30.1943 35.0944 29.8116 35.1106 29.4268C35.1267 29.042 35.2399 28.6675 35.4395 28.338C35.6391 28.0086 35.9187 27.735 36.2523 27.5425L38.8684 26.0319C39.3814 25.7349 39.9896 25.6487 40.5649 25.7914C41.1402 25.9342 41.6376 26.2947 41.9522 26.797C42.2669 27.2993 42.3742 27.9042 42.2515 28.4841C42.1289 29.064 41.7859 29.5736 41.2948 29.9055C41.3639 30.5812 41.309 31.2638 41.1326 31.9197C41.0917 32.0723 41.0435 32.2217 40.9907 32.3687L42.1431 31.7035C42.8729 31.2821 43.4614 30.6538 43.8342 29.8979C44.2069 29.1421 44.3472 28.2927 44.2372 27.4571C44.1272 26.6215 43.7719 25.8374 43.2162 25.2037C42.6606 24.5701 41.9295 24.1154 41.1154 23.8973Z" fill="white"/>
<path d="M38.852 27.5605L37.0508 28.6006C37.3673 28.8201 37.6231 29.1161 37.7946 29.461C37.966 29.8059 38.0475 30.1886 38.0314 30.5734C38.0153 30.9583 37.9023 31.3328 37.7027 31.6622C37.5031 31.9916 37.2235 32.2653 36.8898 32.4577L34.2737 33.9683C33.7607 34.2653 33.1525 34.3515 32.5772 34.2088C32.0019 34.0661 31.5045 33.7055 31.1898 33.2032C30.8752 32.7009 30.7679 32.096 30.8906 31.5161C31.0132 30.9362 31.3563 30.4266 31.8474 30.0947C31.7782 29.419 31.8332 28.7363 32.0095 28.0804C32.0504 27.9278 32.0986 27.7785 32.1514 27.6315L30.999 28.2967C30.0203 28.8618 29.3061 29.7925 29.0137 30.8842C28.7212 31.9758 28.8743 33.1389 29.4394 34.1176C30.0045 35.0963 30.9352 35.8105 32.0268 36.103C33.1185 36.3955 34.2816 36.2424 35.2603 35.6773L37.8765 34.1666C38.433 33.8459 38.9098 33.4033 39.271 32.8722C39.6323 32.341 39.8687 31.735 39.9626 31.0996C40.0564 30.4641 40.0052 29.8156 39.8129 29.2027C39.6206 28.5898 39.2921 28.0284 38.852 27.5605Z" fill="white"/>
</g>
</g>
</g>
</g>
<defs>
<filter id="filter0_d_6_2294" x="70.588" y="17.248" width="124.966" height="29.448" filterUnits="userSpaceOnUse" color-interpolation-filters="sRGB">
<feFlood flood-opacity="0" result="BackgroundImageFix"/>
<feColorMatrix in="SourceAlpha" type="matrix" values="0 0 0 0 0 0 0 0 0 0 0 0 0 0 0 0 0 0 127 0" result="hardAlpha"/>
<feOffset dy="1"/>
<feComposite in2="hardAlpha" operator="out"/>
<feColorMatrix type="matrix" values="0 0 0 0 0 0 0 0 0 0 0 0 0 0 0 0 0 0 0.25 0"/>
<feBlend mode="normal" in2="BackgroundImageFix" result="effect1_dropShadow_6_2294"/>
<feBlend mode="normal" in="SourceGraphic" in2="effect1_dropShadow_6_2294" result="shape"/>
</filter>
<filter id="filter1_d_6_2294" x="11.0014" y="6.56323" width="51.4831" height="47.8748" filterUnits="userSpaceOnUse" color-interpolation-filters="sRGB">
<feFlood flood-opacity="0" result="BackgroundImageFix"/>
<feColorMatrix in="SourceAlpha" type="matrix" values="0 0 0 0 0 0 0 0 0 0 0 0 0 0 0 0 0 0 127 0" result="hardAlpha"/>
<feOffset dy="1"/>
<feComposite in2="hardAlpha" operator="out"/>
<feColorMatrix type="matrix" values="0 0 0 0 0 0 0 0 0 0 0 0 0 0 0 0 0 0 0.25 0"/>
<feBlend mode="normal" in2="BackgroundImageFix" result="effect1_dropShadow_6_2294"/>
<feBlend mode="normal" in="SourceGraphic" in2="effect1_dropShadow_6_2294" result="shape"/>
</filter>
<filter id="filter2_d_6_2294" x="28.8685" y="23.75" width="15.4052" height="12.9983" filterUnits="userSpaceOnUse" color-interpolation-filters="sRGB">
<feFlood flood-opacity="0" result="BackgroundImageFix"/>
<feColorMatrix in="SourceAlpha" type="matrix" values="0 0 0 0 0 0 0 0 0 0 0 0 0 0 0 0 0 0 127 0" result="hardAlpha"/>
<feOffset dy="0.5"/>
<feComposite in2="hardAlpha" operator="out"/>
<feColorMatrix type="matrix" values="0 0 0 0 0 0 0 0 0 0 0 0 0 0 0 0 0 0 0.25 0"/>
<feBlend mode="normal" in2="BackgroundImageFix" result="effect1_dropShadow_6_2294"/>
<feBlend mode="normal" in="SourceGraphic" in2="effect1_dropShadow_6_2294" result="shape"/>
</filter>
<linearGradient id="paint0_linear_6_2294" x1="31" y1="18.3499" x2="48.25" y2="53.8082" gradientUnits="userSpaceOnUse">
<stop stop-color="#0076FC"/>
<stop offset="1" stop-color="#0860B9"/>
</linearGradient>
</defs>
</svg>
